# xmcd CD database file
#
# Track frame offsets:
#	150
#	12904
#	31439
#	41805
#	56391
#	66801
#	79786
#	93154
#	106797
#	126517
#	141757
#	152953
#	169823
#	190989
#	203513
#	217302
#
# Disc length: 3089 seconds
#
# Revision: 0
# Processed by: cddbd v1.4PL0 Copyright (c) Steve Scherf et al.
# Submitted via: Feurio! 1.63 - http://www.feurio.com
#
DISCID=e10c0f10
DTITLE=Merle Haggard - Okie from Muskogee
DYEAR=1900
DGENRE=country
TTITLE0=Okie from Muskogee
TTITLE1=Foot lights
TTITLE2=I da red
TTITLE3=Folsom prison blues
TTITLE4=Corrina Corrina
TTITLE5=Big city
TTITLE6=Fiddle breakdown
TTITLE7=Mama tried
TTITLE8=The bottle let me down
TTITLE9=Always late
TTITLE10=Begging to you
TTITLE11=Faded love
TTITLE12=Medley: Milk cow blues
TTITLE13=If you want to be my woman
TTITLE14=That´s the way love goes
TTITLE15=Tb. Blues
EXTD=
EXTT0=
EXTT1=
EXTT2=
EXTT3=
EXTT4=
EXTT5=
EXTT6=
EXTT7=
EXTT8=
EXTT9=
EXTT10=
EXTT11=
EXTT12=
EXTT13=
EXTT14=
EXTT15=
PLAYORDER=
